# xmcd
#
# Track frame offsets:
# 150
# 8204
# 9702
# 20020
# 31046
# 38549
# 48906
# 60833
# 74371
# 82195
# 87908
# 94403
# 101682
# 108304
# 112461
# 112916
# 118288
# 127907
# 131121
# 150615
# 169143
# 183288
# 192088
# 201243
# 203045
# 211407
# 215842
# 218493
# 221447
# 222384
# 231340
# 233130
# 265589
# 271709
# 278745
# 289471
# 294108
# 313631
# 327406
# 338134
# 342770
#
# Disc length: 4800 seconds
#
# Revision: 0
# Processed by: cddbd v1.5.1PL2 Copyright (c) Steve Scherf et al.
# Submitted via: Audion 3.0.2 (http://www.panic.com/audion/)
#
DISCID=6612be29
DTITLE=muod - tree
DYEAR=1900
DGENRE=
TTITLE0=j
TTITLE1=j
TTITLE2=j
TTITLE3=j
TTITLE4=j
TTITLE5=j
TTITLE6=j
TTITLE7=j
TTITLE8=j
TTITLE9=j
TTITLE10=j
TTITLE11=j
TTITLE12=j
TTITLE13=j
TTITLE14=j
TTITLE15=j
TTITLE16=j
TTITLE17=j
TTITLE18=j
TTITLE19=j
TTITLE20=j
TTITLE21=jj
TTITLE22=j
TTITLE23=j
TTITLE24=j
TTITLE25=j
TTITLE26=j
TTITLE27=j
TTITLE28=j
TTITLE29=j
TTITLE30=j
TTITLE31=j
TTITLE32=j
TTITLE33=jj
TTITLE34=zz
TTITLE35=j
TTITLE36=j
TTITLE37=o
TTITLE38=j
TTITLE39=j
TTITLE40=j
EXTD=
EXTT0=
EXTT1=
EXTT2=
EXTT3=
EXTT4=
EXTT5=
EXTT6=
EXTT7=
EXTT8=
EXTT9=
EXTT10=
EXTT11=
EXTT12=
EXTT13=
EXTT14=
EXTT15=
EXTT16=
EXTT17=
EXTT18=
EXTT19=
EXTT20=
EXTT21=
EXTT22=
EXTT23=
EXTT24=
EXTT25=
EXTT26=
EXTT27=
EXTT28=
EXTT29=
EXTT30=
EXTT31=
EXTT32=
EXTT33=
EXTT34=
EXTT35=
EXTT36=
EXTT37=
EXTT38=
EXTT39=
EXTT40=
PLAYORDER=
